<svg xmlns="http://www.w3.org/2000/svg" viewBox="0 0 620 500" role="img" aria-labelledby="title desc">
  <title id="title">NovaPrint Brasil</title>
  <desc id="desc">Logo oficial NovaPrint Brasil com fundo transparente.</desc>

  <g stroke="#000000" stroke-width="4" stroke-linejoin="round">
    <polygon points="180,54 214,20 262,20 296,54 296,102 262,136 214,136 180,102" fill="#000000"/>
    <polygon points="72,150 106,116 154,116 188,150 188,198 154,232 106,232 72,198" fill="#f2008f"/>
    <polygon points="184,234 218,200 266,200 300,234 300,282 266,316 218,316 184,282" fill="#16abe3"/>
    <polygon points="292,148 326,114 374,114 408,148 408,196 374,230 326,230 292,196" fill="#ffe600"/>
  </g>

  <g font-family="Arial, Helvetica, sans-serif" fill="#000000" stroke="#ffffff" paint-order="stroke fill" stroke-linejoin="round">
    <text x="270" y="230" font-size="92" font-weight="700" stroke-width="4">NOVA</text>
    <text x="270" y="318" font-size="92" font-weight="700" stroke-width="4">PRINT</text>
    <text x="448" y="382" font-size="50" font-weight="400" stroke-width="2.5">Brasil</text>
  </g>
</svg>
